#N canvas -39 31 1440 707 12;
#X declare -lib Gem;
#X declare -lib audiolab;
#X declare -lib Gem;
#X obj 50 19 declare -lib Gem;
#X obj 177 19 declare -lib audiolab;
#N canvas 0 132 1331 627 video2signal 0;
#X obj 99 482 pix_pix2sig~;
#N canvas 0 50 578 209 (subpatch) 0;
#X array wavetable1 2048 float 2;
#X coords 0 1 2048 -1 600 200 1 0 0;
#X restore 695 -125 graph;
#X obj 118 515 *~ 2;
#X obj 119 537 -~ 1;
#X obj 119 570 *~ 0.8;
#X obj 540 351 pix_texture;
#X obj 514 -100 gemhead;
#X msg 585 -100 colorspace RGBA;
#X obj 582 -18 t a a;
#X obj 514 156 pix_video;
#X obj 653 -1 print videoctl;
#X obj 653 -20 r \$0-ctl;
#X msg 605 -64 device 0;
#X obj 511 322 pix_motionblur;
#X obj 95 195 array define my-window;
#X msg 106 147 bang;
#X obj 295 119 loadbang;
#X obj 95 112 loadbang;
#X msg 569 83 colorspace Grey;
#X obj 511 277 pix_crop;
#X obj 715 249 -;
#X obj 757 228 t b f;
#X obj 757 197 / 2;
#X obj 606 289 / 100;
#X msg 697 83 dimen 2048 1536;
#X msg 580 196 2048;
#X msg 715 218 768;
#X obj 101 -144 block~ 2048;
#X obj 95 172 window my-window hanning 2048;
#X msg 99 449 mode line;
#X obj 429 406 pix_resize;
#X msg 429 374 dimen 2048 1;
#X obj 571 43 loadbang;
#X obj 429 342 loadbang;
#X obj 657 118 loadbang;
#X msg 757 142 20, f 4;
#X msg 606 234 20;
#X obj 99 418 loadbang;
#X msg 295 148 2048;
#X obj 806 140 inlet;
#X obj 647 232 inlet;
#X obj 168 297 gemhead;
#X obj 392 70 phasor~;
#X obj 392 120 tabread4~ wavetable1;
#X obj 392 95 *~ 2048;
#X obj 312 191 phasor~;
#X obj 264 232 -~ 0.5;
#X msg 86 298 draw point;
#X obj 86 272 loadbang;
#X msg 392 44 30;
#X obj 392 20 loadbang;
#X obj 414 564 pix_texture;
#N canvas 697 49 586 667 backend 0;
#X obj 104 122 bng 15 250 50 0 \$0-backendinfo \$0-backendinfo <--show_info_on_drivers 17 8 0 10 #fcfcfc #000000 #000000;
#N canvas 15 49 450 300 \$0-backendinfo 0;
#X text 50 65 Currently you are not using any specific driver...;
#X text 50 50 On this system you have 0 drivers available;
#X restore 184 207 pd \$0-backendinfo;
#X obj 184 240 r \$0-backendinfo;
#X msg 223 331 clear;
#X obj 223 351 s pd-\$0-backendinfo;
#X obj 203 424 s \$0-ctl;
#X msg 203 405 driver;
#N canvas 4 49 685 300 fake 0;
#X obj 178 5 inlet bang;
#X msg 178 25 currentdriver v4l2 \, drivers 3 \, driver v4l2 analog \, driver v4l analog \, driver dc1394 iidc \, driver unicap analog \, driver vlc;
#X obj 178 67 outlet;
#X connect 0 0 1 0;
#X connect 1 0 2 0;
#X restore 265 414 pd fake;
#X obj 265 434 s \$0-info;
#N canvas 14 49 450 300 content 0;
#X obj 123 124 route driver drivers currentdriver;
#N canvas 509 196 644 372 numdrivers 0;
#X obj 119 11 inlet;
#X obj 119 316 outlet;
#X obj 119 81 f;
#X obj 277 69 inlet reset;
#X msg 277 89 0;
#X obj 119 298 list prepend text 50;
#X msg 119 154 50 On this system you have \$1 drivers available;
#X obj 119 101 t f f;
#X obj 146 201 select 0;
#X obj 119 31 route bang float;
#X msg 191 223 90 Click on any of the patches below for information about a specific driver:;
#X connect 0 0 9 0;
#X connect 2 0 7 0;
#X connect 3 0 4 0;
#X connect 4 0 2 1;
#X connect 5 0 1 0;
#X connect 6 0 5 0;
#X connect 7 0 6 0;
#X connect 7 1 8 0;
#X connect 8 1 10 0;
#X connect 9 0 2 0;
#X connect 9 1 2 1;
#X connect 10 0 5 0;
#X restore 190 179 pd numdrivers;
#N canvas 12 49 638 300 currentdriver 0;
#X obj 119 31 inlet;
#X obj 119 186 outlet;
#X obj 119 82 symbol <undefined>;
#X obj 325 33 inlet reset;
#X obj 325 53 symbol <undefined>;
#X obj 119 102 select <undefined>;
#X obj 119 164 list prepend text 50 65;
#X obj 119 51 route bang;
#X obj 202 54 symbol;
#X msg 224 124 You are currently using the '\$1' driver;
#X msg 119 144 Currently you are not using any specific driver...;
#X connect 0 0 7 0;
#X connect 2 0 5 0;
#X connect 3 0 4 0;
#X connect 4 0 2 1;
#X connect 5 0 10 0;
#X connect 5 1 9 0;
#X connect 6 0 1 0;
#X connect 7 0 2 0;
#X connect 7 1 8 0;
#X connect 8 0 2 1;
#X connect 9 0 6 0;
#X connect 10 0 6 0;
#X restore 280 179 pd currentdriver;
#N canvas 12 49 456 510 listdrivers 0;
#X obj 149 61 inlet;
#X obj 149 276 outlet;
#X obj 241 61 inlet reset;
#X obj 149 81 list split 1;
#X obj 149 101 symbol unknown;
#X obj 241 101 symbol unknown;
#X obj 149 121 t b s;
#X obj 149 141 i;
#X obj 149 161 + 20;
#X obj 149 181 t f f;
#X msg 149 221 \$1 \$2-videoplugin \$3;
#X msg 194 122 100;
#X obj 149 253 list prepend obj 60;
#X msg 291 143 0;
#X obj 291 163 makefilename $%d;
#X obj 149 201 pack 0 s s;
#X obj 241 81 t b b b;
#X connect 0 0 3 0;
#X connect 2 0 16 0;
#X connect 3 0 4 0;
#X connect 4 0 6 0;
#X connect 5 0 4 1;
#X connect 6 0 7 0;
#X connect 6 1 15 1;
#X connect 7 0 8 0;
#X connect 8 0 9 0;
#X connect 9 0 15 0;
#X connect 9 1 7 1;
#X connect 10 0 12 0;
#X connect 11 0 7 1;
#X connect 12 0 1 0;
#X connect 13 0 14 0;
#X connect 14 0 15 2;
#X connect 15 0 10 0;
#X connect 16 0 5 0;
#X connect 16 1 11 0;
#X connect 16 2 13 0;
#X restore 123 149 pd listdrivers;
#X obj 123 94 r \$0-info;
#X obj 190 211 t a;
#X obj 337 125 t b b b;
#X obj 337 59 inlet reset;
#X obj 190 251 s pd-\$0-backendinfo;
#X obj 190 231 list trim;
#X obj 140 25 inlet finalize;
#X connect 0 0 3 0;
#X connect 0 1 1 0;
#X connect 0 2 2 0;
#X connect 1 0 5 0;
#X connect 2 0 5 0;
#X connect 3 0 5 0;
#X connect 4 0 0 0;
#X connect 5 0 9 0;
#X connect 6 0 3 1;
#X connect 6 1 1 1;
#X connect 6 2 2 1;
#X connect 7 0 6 0;
#X connect 9 0 8 0;
#X connect 10 0 2 0;
#X connect 10 0 1 0;
#X restore 351 305 pd content;
#X obj 203 375 t b;
#X msg 265 388 bang;
#X obj 184 280 t b b;
#X obj 223 280 t b b;
#X obj 184 260 t b b b;
#X msg 184 311 loadbang \, vis 1;
#X connect 2 0 14 0;
#X connect 3 0 4 0;
#X connect 6 0 5 0;
#X connect 7 0 8 0;
#X connect 10 0 6 0;
#X connect 11 0 7 0;
#X connect 12 0 15 0;
#X connect 12 1 9 0;
#X connect 13 0 3 0;
#X connect 13 1 9 1;
#X connect 14 0 12 0;
#X connect 14 1 10 0;
#X connect 14 2 13 0;
#X connect 15 0 4 0;
#X coords 0 -1 1 1 170 40 1 100 100;
#X restore 964 378 pd backend specific information;
#X obj 963 354 declare -lib Gem;
#X obj 828 368 cnv 15 120 120 empty empty empty 20 12 0 14 #14e814 #404040 0;
#X obj 834 343 gemwin;
#X msg 830 255 0 \, destroy;
#N canvas 361 97 456 455 FSAA 0;
#X msg 48 222 0;
#X msg 79 222 2;
#X msg 108 222 4;
#X text 54 129 2 - double resolution (4 times the pixel data);
#X text 43 324 Full-scene anti-aliasing by supersampling usually means that each full frame is rendered at double (2x) or quadruple (4x) the display resolution \, and then down-sampled to match the display resolution. So a 4x FSAA would render 16 supersampled pixels for each single pixel of each frame.;
#X text 54 189 8 - eight-times resolution (64 times the pixel data);
#X text 54 149 4 - quadruple resolution (16 times the pixel data);
#X text 54 109 0 - turn off super sampling for anti-aliasing;
#X text 43 405 http://en.wikipedia.org/wiki/Anti-aliasing#Full-scene_anti-aliasing;
#X text 200 220 <-- destroy gemwin between clicking these;
#X obj 90 299 s \$0-gemwin-in;
#X text 54 168 5 - quadruple resolution (16 times the pixel data);
#X text 33 6 Gem provides Full Scene Anti-Aliasing for smoothing out the edges of all things drawn in the OpenGL scene. To enable it \, send the "FSAA" message to the [gemwin] before creating it.;
#X text 33 61 FSAA might or might not work depending on your graphic card \, the value of the parameter may also vary.;
#X msg 169 222 8;
#X msg 139 222 5;
#X msg 90 272 destroy \, FSAA \$1 \, create \, 1;
#X connect 0 0 16 0;
#X connect 1 0 16 0;
#X connect 2 0 16 0;
#X connect 14 0 16 0;
#X connect 15 0 16 0;
#X connect 16 0 10 0;
#X restore 835 394 pd FSAA;
#X obj 834 321 r \$0-gemwin-in;
#N canvas 295 219 1456 478 fullscreen 0;
#X text -88 -108 fullscreen 0/1: make fullscreen-window (if possible with the dimensions passed via "dimen");
#X text -88 -64 on platform's that support it (currently: Mac OS X) you can specify on which screen you want to go fullscreen (if you have several screens): e.g. "fullscreen 2" will make a fullscreen-window on Screen2;
#X text -86 -130 FULLSCREEN SUPPORT;
#X obj -85 -1 vradio 15 1 0 3 empty empty empty 0 -8 0 10 #fcfcfc #000000 #000000 0;
#X floatatom -85 50 5 0 0 0 - - - 0;
#X msg -85 71 reset \, fullscreen \$1 \, create \, 1;
#X text -63 -4 deactivate fullscreen;
#X text -64 13 fullscreen on screen 1;
#X text -64 29 fullscreen on screen 2;
#X msg -72 126 0 \, destroy;
#X text -89 182 BE CAREFUL : when you are in fullscreen mode \, you have no more access to the other windows of your system.;
#N canvas 107 50 450 300 esc 0;
#X obj 65 20 gemkeyboard;
#X obj 65 167 outlet;
#X obj 89 71 keyname;
#X obj 128 96 sel Escape;
#X obj 65 41 sel 53;
#X obj 189 47 sel Escape;
#X obj 150 22 gemkeyname;
#X connect 0 0 4 0;
#X connect 2 1 3 0;
#X connect 3 0 1 0;
#X connect 4 0 1 0;
#X connect 5 0 1 0;
#X connect 6 1 5 0;
#X restore -72 104 pd esc;
#X text 116 15 press ESC to quit;
#X obj -85 155 outlet;
#X msg 250 82 1;
#X obj 183 104 t b b;
#X obj 180 64 bng 15 250 50 0 empty empty empty 17 7 0 10 #fcfcfc #000000 #000000;
#X obj 244 40 inlet;
#X connect 3 0 4 0;
#X connect 4 0 5 0;
#X connect 5 0 13 0;
#X connect 9 0 13 0;
#X connect 11 0 9 0;
#X connect 14 0 3 0;
#X connect 15 0 14 0;
#X connect 16 0 15 0;
#X connect 17 0 16 0;
#X restore 835 413 pd fullscreen;
#N canvas 641 438 406 148 offset 0;
#X text 53 8 OFFSET SUPPORT;
#X text 21 28 offset might not work on some window managers if the borders are on;
#X text 20 55 under OSX you must take into account the number of pixel of the menubar \, title and eventually of your dock.;
#X text 19 82 [offset 0 -60( with [menubar 0( is working in 10.6 to set the window in the top left of the screen;
#X restore 837 435 pd offset;
#X msg 829 236 create \, 1;
#N canvas 252 99 539 630 buffering 0;
#X msg 63 127 buffer 1;
#X msg 78 152 buffer 2;
#X text 134 127 single buffering;
#X text 145 150 double buffering;
#X msg 111 244 bang;
#X text 152 254 swap the buffers (double buffer mode);
#X text 151 235 clear the buffer (single buffer mode);
#X text 30 16 messages to [gemwin] concerning the buffer rendering mode;
#X msg 17 83 0 \, destroy;
#X msg 117 198 create \, 1;
#X text 195 197 ...and create it after;
#X obj 33 283 s \$0-gemwin-in;
#X text 95 84 destroy window before to set buffer mode...;
#X text 30 323 When you are in single buffer mode \, you must bang the gemhead each time you want to draw. like:;
#X obj 33 383 loadbang;
#X msg 33 407 0;
#X obj 33 436 gemhead;
#X obj 149 383 metro 50;
#X obj 149 364 tgl 15 0 empty empty empty 17 7 0 10 #fcfcfc #000000 #000000 0 1;
#X obj 33 519 rotateXYZ;
#X obj 176 426 f;
#X obj 176 472 % 360;
#X obj 33 580 square 0.75;
#X obj 33 550 translateXYZ 2 0 0;
#X text 172 363 toggle to draw;
#X obj 176 448 + 1;
#X obj 33 472 color 0.8 0.8 0.8;
#X text 29 33 Changing the rendering mode must be done before the window is created in order to take effect.;
#X obj 176 494 t f f;
#X obj 149 405 t b b;
#X msg 279 142 transparent \$1;
#X obj 279 123 tgl 15 0 empty empty empty 17 7 0 10 #fcfcfc #000000 #000000 0 1;
#X text 299 108 use RGBA buffer to have an alpha channel and a transparent window, f 32;
#X connect 0 0 11 0;
#X connect 1 0 11 0;
#X connect 4 0 11 0;
#X connect 8 0 11 0;
#X connect 9 0 11 0;
#X connect 14 0 15 0;
#X connect 15 0 16 0;
#X connect 16 0 26 0;
#X connect 17 0 29 0;
#X connect 18 0 17 0;
#X connect 19 0 23 0;
#X connect 20 0 25 0;
#X connect 21 0 28 0;
#X connect 23 0 22 0;
#X connect 25 0 21 0;
#X connect 26 0 19 0;
#X connect 28 0 19 3;
#X connect 28 1 20 1;
#X connect 29 0 16 0;
#X connect 29 1 20 0;
#X connect 30 0 11 0;
#X connect 31 0 30 0;
#X restore 839 455 pd buffering;
#X obj 761 366 bng 15 250 50 0 empty empty empty 17 7 0 10 #fcfcfc #000000 #000000;
#N canvas 516 113 572 565 properties 0;
#X msg 41 203 enumProps;
#X obj 31 21 cnv 15 400 80 empty empty readProperties 20 12 0 14 #e0e0e0 #404040 0;
#X obj 39 47 hradio 15 1 0 1 \$0-propreadId \$0-propreadId empty 0 -8 0 10 #fcfcfc #000000 #000000 0;
#X obj 40 70 cnv 15 260 20 empty \$0-propreadName <none> 10 9 0 14 #c4c4fc #404040 0;
#N canvas 186 49 450 537 PropertyLogic 0;
#N canvas 586 84 774 460 id2property 0;
#X obj 353 106 r \$0-info;
#X obj 353 130 route proplist;
#X obj 353 152 route read numread;
#X obj 405 176 t b f;
#X obj 353 174 list;
#X obj 353 219 list prepend;
#X msg 353 196 \$1;
#X obj 353 239 t l l;
#X obj 95 197 list prepend;
#X obj 525 176 t b f;
#X obj 473 174 list;
#X obj 473 219 list prepend;
#X msg 473 196 \$1;
#X obj 473 239 t l l;
#X obj 473 152 route write numwrite;
#X obj 95 69 inlet readID;
#X obj 225 70 inlet writeID;
#X obj 180 378 outlet readName;
#X obj 310 356 outlet writeName;
#X obj 95 176 t b f;
#X obj 95 219 list split;
#X obj 180 316 symbol;
#X msg 180 291 symbol \$1;
#X obj 225 197 list prepend;
#X obj 225 176 t b f;
#X obj 225 219 list split;
#X obj 310 316 symbol;
#X msg 310 291 symbol \$1;
#X obj 95 91 route float;
#X obj 225 92 route float;
#X msg 432 333 number \$1;
#X msg 552 333 number \$1;
#X obj 432 353 s \$0-propreadId;
#X obj 552 353 s \$0-propwriteId;
#X obj 602 254 t f f;
#X msg 602 232 0;
#X obj 602 211 loadbang;
#X obj 123 258 route bang;
#X obj 253 258 route bang;
#X connect 0 0 1 0;
#X connect 1 0 2 0;
#X connect 2 0 4 0;
#X connect 2 1 3 0;
#X connect 2 2 14 0;
#X connect 3 0 5 1;
#X connect 3 1 30 0;
#X connect 4 0 6 0;
#X connect 5 0 7 0;
#X connect 6 0 5 0;
#X connect 7 0 8 1;
#X connect 7 1 5 1;
#X connect 8 0 20 0;
#X connect 9 0 11 1;
#X connect 9 1 31 0;
#X connect 10 0 12 0;
#X connect 11 0 13 0;
#X connect 12 0 11 0;
#X connect 13 0 23 1;
#X connect 13 1 11 1;
#X connect 14 0 10 0;
#X connect 14 1 9 0;
#X connect 15 0 28 0;
#X connect 16 0 29 0;
#X connect 19 0 8 0;
#X connect 19 1 20 1;
#X connect 20 1 37 0;
#X connect 21 0 17 0;
#X connect 22 0 21 0;
#X connect 23 0 25 0;
#X connect 24 0 23 0;
#X connect 24 1 25 1;
#X connect 25 1 38 0;
#X connect 26 0 18 0;
#X connect 27 0 26 0;
#X connect 28 0 19 0;
#X connect 29 0 24 0;
#X connect 30 0 32 0;
#X connect 31 0 33 0;
#X connect 34 0 30 0;
#X connect 34 1 31 0;
#X connect 35 0 34 0;
#X connect 36 0 35 0;
#X connect 37 1 22 0;
#X connect 38 1 27 0;
#X restore 188 192 pd id2property;
#X obj 320 407 list prepend set;
#X obj 320 429 list trim;
#X obj 320 451 t b a;
#N canvas 438 137 450 300 getProp 0;
#X obj 44 177 s \$0-propreadName;
#X msg 44 156 label \$1;
#X msg 165 156 get \$1;
#X obj 44 81 inlet;
#X obj 165 178 outlet;
#X obj 290 57 r \$0-info;
#X obj 290 79 route prop;
#N canvas 3 45 450 300 sroute 0;
#X obj 73 12 inlet;
#X obj 312 9 inlet;
#X obj 73 113 outlet;
#X obj 73 34 list split 1;
#X obj 73 56 select s;
#X obj 73 78 list prepend;
#X connect 0 0 3 0;
#X connect 1 0 4 1;
#X connect 3 0 4 0;
#X connect 3 1 5 1;
#X connect 4 0 5 0;
#X connect 5 0 2 0;
#X restore 290 113 pd sroute;
#X obj 44 123 t s s s;
#X msg 290 226 label \$1;
#X obj 290 247 s \$0-propreadValue;
#X obj 290 135 route float;
#X obj 290 157 makefilename %g;
#X obj 106 29 loadbang;
#X obj 106 51 t b b;
#X msg 106 73 symbol <none>;
#X msg 196 74 symbol --;
#X obj 353 181 symbol;
#X connect 1 0 0 0;
#X connect 2 0 4 0;
#X connect 3 0 8 0;
#X connect 5 0 6 0;
#X connect 6 0 7 0;
#X connect 7 0 11 0;
#X connect 8 0 1 0;
#X connect 8 1 2 0;
#X connect 8 2 7 1;
#X connect 9 0 10 0;
#X connect 11 0 12 0;
#X connect 11 1 17 0;
#X connect 12 0 9 0;
#X connect 13 0 14 0;
#X connect 14 0 15 0;
#X connect 14 1 16 0;
#X connect 15 0 1 0;
#X connect 16 0 9 0;
#X connect 17 0 9 0;
#X restore 320 318 pd getProp;
#X obj 172 158 r \$0-propreadId;
#X obj 282 158 r \$0-propwriteId;
#N canvas 432 95 450 467 setProp 0;
#X msg 44 156 label \$1;
#X msg 165 156 get \$1;
#X obj 44 31 inlet;
#X obj 218 324 outlet;
#X obj 290 57 r \$0-info;
#X obj 290 79 route prop;
#N canvas 4 50 450 300 sroute 0;
#X obj 73 12 inlet;
#X obj 312 9 inlet;
#X obj 73 113 outlet;
#X obj 73 34 list split 1;
#X obj 73 56 select s;
#X obj 73 78 list prepend;
#X connect 0 0 3 0;
#X connect 1 0 4 1;
#X connect 3 0 4 0;
#X connect 3 1 5 1;
#X connect 4 0 5 0;
#X connect 5 0 2 0;
#X restore 290 113 pd sroute;
#X obj 290 135 route float;
#X obj 44 177 s \$0-propwriteName;
#X obj 290 247 s \$0-propwriteValue;
#X msg 290 226 set \$1;
#X obj 50 276 r \$0-propwriteValue;
#X obj 50 298 route float;
#X obj 50 320 pack 0 s;
#X msg 50 342 set \$2 \$1;
#X obj 44 73 t s s s s;
#X obj 127 27 loadbang;
#X obj 127 49 t b b;
#X msg 127 71 symbol <none>;
#X connect 0 0 8 0;
#X connect 1 0 3 0;
#X connect 2 0 15 0;
#X connect 4 0 5 0;
#X connect 5 0 6 0;
#X connect 6 0 7 0;
#X connect 7 0 10 0;
#X connect 10 0 9 0;
#X connect 11 0 12 0;
#X connect 12 0 13 0;
#X connect 13 0 14 0;
#X connect 14 0 3 0;
#X connect 15 0 0 0;
#X connect 15 1 1 0;
#X connect 15 2 6 1;
#X connect 15 3 13 1;
#X connect 16 0 17 0;
#X connect 17 0 18 0;
#X connect 18 0 0 0;
#X restore 199 315 pd setProp;
#X obj 199 404 list prepend set;
#X obj 199 426 list trim;
#X obj 199 448 t b a;
#X obj 199 361 list prepend get;
#X obj 199 339 route get set;
#X obj 309 361 list prepend set;
#X obj 199 477 s \$0-propset;
#X obj 320 480 s \$0-propget;
#X obj 54 38 inlet;
#X obj 54 66 s \$0-ctl;
#X connect 0 0 4 0;
#X connect 0 1 7 0;
#X connect 1 0 2 0;
#X connect 2 0 3 0;
#X connect 3 0 15 0;
#X connect 3 1 15 0;
#X connect 4 0 12 0;
#X connect 5 0 0 0;
#X connect 6 0 0 1;
#X connect 7 0 12 0;
#X connect 8 0 9 0;
#X connect 9 0 10 0;
#X connect 10 0 14 0;
#X connect 10 1 14 0;
#X connect 11 0 1 0;
#X connect 12 0 11 0;
#X connect 12 1 13 0;
#X connect 13 0 8 0;
#X connect 16 0 17 0;
#X restore 41 526 pd PropertyLogic;
#X obj 310 70 cnv 15 100 20 empty \$0-propreadValue -- 10 9 0 14 #fcc4c4 #404040 0;
#X obj 31 111 cnv 15 400 80 empty empty writeProperties 20 12 0 14 #e0e0e0 #404040 0;
#X obj 39 137 hradio 15 1 0 1 \$0-propwriteId \$0-propwriteId empty 0 -8 0 10 #fcfcfc #000000 #000000 0;
#X obj 40 160 cnv 15 260 20 empty \$0-propwriteName <none> 10 9 0 14 #c4c4fc #404040 0;
#X obj 311 160 nbx 5 20 -1e+37 1e+37 0 0 \$0-propwriteValue \$0-propwriteValue empty 0 -8 0 14 #c4fcc4 #000000 #000000 0 256;
#X msg 66 315 get width;
#X msg 83 392 set height 1024;
#X obj 66 294 r \$0-propget;
#X obj 83 372 r \$0-propset;
#X msg 87 340 get Hue Saturation;
#X text 208 340 you can query several properties at once;
#X text 146 295 query a (readable) property via a message "get <propname>";
#X text 161 372 set a (writable) property via a message "set <prop> <value>";
#X text 70 224 this will return 2 lists of readable and writable properties through the "info" outlet of [pix_video].;
#X text 72 257 NOTE that propertynames are always single symbols that might contain spaces (and other weird characters);
#X text 103 203 INIT: query names of all available properties;
#X text 83 423 ATOMIC setting of multiple properties;
#X msg 99 441 clearProps;
#X msg 99 503 applyProps;
#X msg 99 481 setProps Hue 10;
#X msg 99 461 setProps Contrast 40;
#X text 247 443 clear the current property list;
#X text 247 461 add values to the property list (don't apply yet);
#X text 247 479 add values to the property list (don't apply yet);
#X text 247 499 apply current property list;
#X msg 414 415 set width 1280;
#X msg 412 392 set height 1024;
#X connect 0 0 4 0;
#X connect 10 0 4 0;
#X connect 11 0 4 0;
#X connect 12 0 10 0;
#X connect 13 0 11 0;
#X connect 14 0 4 0;
#X connect 22 0 4 0;
#X connect 23 0 4 0;
#X connect 24 0 4 0;
#X connect 25 0 4 0;
#X connect 30 0 4 0;
#X connect 31 0 4 0;
#X restore 965 426 pd properties;
#X msg 830 299 reset \, dimen 1080 480 \, create \, 1;
#X msg 937 273 reset \, dimen 1920 1080 \, create \, 1;
#X obj 936 247 loadbang;
#X obj 168 322 scopeXYZ~ 2048;
#X obj 391 201 *~ 1.62;
#X obj 417 596 rectangle 7 2;
#X obj 659 546 rectangle 7 2;
#X obj 248 259 *~ 14;
#X obj 392 274 +~ -2.5;
#X obj 659 519 translateXYZ 0 1 0;
#X obj 418 541 translateXYZ 0 0.9 0;
#N canvas 0 156 1197 570 bufferavg 0;
#X obj 577 241 until;
#X obj 382 24 inlet;
#X msg 39 79 const 0;
#X obj 39 54 loadbang;
#X obj 376 146 t b b;
#X obj 580 277 f;
#X obj 618 270 + 1;
#X obj 673 266 sel 0;
#X obj 618 296 mod 2048;
#X msg 574 208 2048;
#X obj 25 111 array define buff0 2048;
#X obj 269 202 easyflow/tabcopy wavetable1 buff0;
#X obj 186 378 tabwrite wavetable2 2048;
#N canvas 0 50 578 209 (subpatch) 0;
#X array wavetable2 2048 float 2;
#X coords 0 1 2048 -1 600 200 1 0 0;
#X restore 695 1 graph;
#X obj 185 344 expr (0.7 * buff0[$i1]) + (0.3 * wavetable1[$i1]);
#X connect 0 0 5 0;
#X connect 1 0 4 0;
#X connect 2 0 10 0;
#X connect 3 0 2 0;
#X connect 4 0 11 0;
#X connect 4 1 9 0;
#X connect 5 0 6 0;
#X connect 5 0 12 1;
#X connect 5 0 14 0;
#X connect 6 0 8 0;
#X connect 7 0 0 1;
#X connect 8 0 5 1;
#X connect 8 0 7 0;
#X connect 9 0 0 0;
#X connect 14 0 12 0;
#X restore 14 609 pd bufferavg;
#X obj 476 196 t b;
#X obj 476 220 s bang;
#X obj 40 516 r bang;
#X obj 40 544 t b b;
#X obj 120 604 tabwrite~ wavetable1 2048;
#X connect 0 1 2 0;
#X connect 2 0 3 0;
#X connect 3 0 4 0;
#X connect 4 0 81 0;
#X connect 5 0 74 0;
#X connect 6 0 9 0;
#X connect 7 0 8 0;
#X connect 8 0 9 0;
#X connect 8 1 10 0;
#X connect 9 0 19 0;
#X connect 9 0 77 0;
#X connect 11 0 8 0;
#X connect 12 0 8 0;
#X connect 13 0 30 0;
#X connect 13 0 5 0;
#X connect 15 0 28 0;
#X connect 16 0 38 0;
#X connect 17 0 28 0;
#X connect 18 0 9 0;
#X connect 19 0 13 0;
#X connect 20 0 19 4;
#X connect 21 0 20 0;
#X connect 21 1 20 1;
#X connect 22 0 21 0;
#X connect 23 0 13 1;
#X connect 24 0 9 0;
#X connect 25 0 19 1;
#X connect 26 0 20 0;
#X connect 29 0 0 0;
#X connect 30 0 0 0;
#X connect 30 0 75 0;
#X connect 31 0 30 0;
#X connect 32 0 18 0;
#X connect 32 0 24 0;
#X connect 33 0 31 0;
#X connect 34 0 25 0;
#X connect 34 0 26 0;
#X connect 34 0 35 0;
#X connect 34 0 36 0;
#X connect 35 0 22 0;
#X connect 35 0 19 2;
#X connect 36 0 23 0;
#X connect 37 0 29 0;
#X connect 38 0 28 1;
#X connect 39 0 22 0;
#X connect 39 0 19 2;
#X connect 40 0 23 0;
#X connect 41 0 68 0;
#X connect 42 0 44 0;
#X connect 43 0 69 0;
#X connect 44 0 43 0;
#X connect 45 0 46 0;
#X connect 46 0 72 0;
#X connect 47 0 68 0;
#X connect 48 0 47 0;
#X connect 49 0 42 0;
#X connect 49 0 45 0;
#X connect 50 0 49 0;
#X connect 51 0 70 0;
#X connect 56 0 55 0;
#X connect 58 0 55 0;
#X connect 59 0 55 0;
#X connect 61 0 55 0;
#X connect 63 0 59 0;
#X connect 65 0 55 0;
#X connect 66 0 55 0;
#X connect 67 0 66 0;
#X connect 69 0 73 0;
#X connect 72 0 68 1;
#X connect 73 0 68 2;
#X connect 74 0 71 0;
#X connect 75 0 51 0;
#X connect 77 0 78 0;
#X connect 79 0 80 0;
#X connect 80 0 76 0;
#X connect 80 1 81 0;
#X coords 0 627 1 626 210 180 0;
#X restore 44 138 pd video2signal;
#X obj 337 18 block~ 64;
#X obj 860 855 pp.eqfilter~ lowpass;
#A saved;
#X msg 1008 825 frequency \$1;
#X obj 1008 770 loadbang;
#X msg 1008 797 2000;
#X obj 808 1018 dac~;
#X obj 665 747 cyclone/slide~;
#X obj 712 693 loadbang;
#X msg 1371 213 devices;
#X msg 1482 214 close;
#X obj 1408 267 comport 0 9600;
#X msg 1435 214 open 0;
#X obj 1408 312 sel 13 10;
#X obj 1404 385 iem_alisttosym;
#X obj 1403 410 fromsymbol;
#X text 1235 606 margin;
#X text 1304 605 motionblur;
#X text 1386 607 frequency;
#X obj 1237 695 s margin;
#X obj 1315 727 s moblur;
#X obj 1399 758 s freq;
#X obj 1470 799 s vol;
#X obj 44 74 r moblur;
#X obj 244 75 r margin;
#X obj 665 667 clip~ -1 1;
#X obj 1435 183 loadbang;
#X obj 1405 446 unpack f f f f f f f;
#X obj 1412 360 zl group 100;
#N canvas 10 78 859 272 smooth 0;
#X obj 143 81 +;
#X obj 143 106 int;
#X obj 143 131 change;
#X obj 67 88 bang~;
#X obj 66 119 f;
#X obj 142 29 inlet;
#X obj 53 152 outlet;
#X obj 143 56 * 0.6;
#X obj 193 74 * 0.4;
#X connect 0 0 1 0;
#X connect 0 0 8 0;
#X connect 1 0 2 0;
#X connect 2 0 4 1;
#X connect 3 0 4 0;
#X connect 4 0 6 0;
#X connect 5 0 7 0;
#X connect 7 0 0 0;
#X connect 8 0 0 1;
#X restore 1268 516 pd smooth;
#N canvas 10 78 859 300 smooth 0;
#X obj 118 86 +;
#X obj 118 111 int;
#X obj 118 136 change;
#X obj 42 93 bang~;
#X obj 41 124 f;
#X obj 117 34 inlet;
#X obj 28 157 outlet;
#X obj 118 61 * 0.6;
#X obj 168 79 * 0.4;
#X connect 0 0 1 0;
#X connect 0 0 8 0;
#X connect 1 0 2 0;
#X connect 2 0 4 1;
#X connect 3 0 4 0;
#X connect 4 0 6 0;
#X connect 5 0 7 0;
#X connect 7 0 0 0;
#X connect 8 0 0 1;
#X restore 1327 549 pd smooth;
#N canvas 10 78 859 300 smooth 0;
#X obj 113 77 +;
#X obj 113 102 int;
#X obj 113 127 change;
#X obj 37 84 bang~;
#X obj 36 115 f;
#X obj 112 25 inlet;
#X obj 23 148 outlet;
#X obj 113 52 * 0.6;
#X obj 163 70 * 0.4;
#X connect 0 0 1 0;
#X connect 0 0 8 0;
#X connect 1 0 2 0;
#X connect 2 0 4 1;
#X connect 3 0 4 0;
#X connect 4 0 6 0;
#X connect 5 0 7 0;
#X connect 7 0 0 0;
#X connect 8 0 0 1;
#X restore 1395 518 pd smooth;
#N canvas 10 78 859 300 smooth 0;
#X obj 201 116 +;
#X obj 201 141 int;
#X obj 201 166 change;
#X obj 125 123 bang~;
#X obj 124 154 f;
#X obj 200 64 inlet;
#X obj 111 187 outlet;
#X obj 201 91 * 0.6;
#X obj 251 109 * 0.4;
#X connect 0 0 1 0;
#X connect 0 0 8 0;
#X connect 1 0 2 0;
#X connect 2 0 4 1;
#X connect 3 0 4 0;
#X connect 4 0 6 0;
#X connect 5 0 7 0;
#X connect 7 0 0 0;
#X connect 8 0 0 1;
#X restore 1467 547 pd smooth;
#X msg 1509 180 open 1;
#X obj 1238 664 cyclone/scale 0 1023 1 200;
#X obj 1316 697 cyclone/scale 0 1023 0 95;
#X obj 1400 727 cyclone/scale 0 1023 24 1000;
#X obj 1472 763 cyclone/scale 0 1023 0 1;
#X obj 810 910 pp.rev~;
#A saved empty_slot \; empty_slot \; empty_slot \; empty_slot \; empty_slot \; empty_slot \; empty_slot \; empty_slot \; empty_slot \; empty_slot \; empty_slot \; empty_slot \; empty_slot \; empty_slot \; empty_slot \; empty_slot \; empty_slot \; empty_slot \; empty_slot \; empty_slot \; empty_slot \;;
#X msg 712 720 5;
#X msg 760 720 10;
#X obj 810 949 pp.out~;
#A saved;
#X obj 693 855 pp.eqfilter~ lowpass;
#A saved;
#X obj 737 798 *~;
#X obj 790 190 ctlin;
#X floatatom 776 291 5 0 0 0 - - - 0;
#X obj 846 274 / 127;
#X obj 775 343 pack f f;
#X obj 777 440 route 0 1 2 3 4 5 6;
#X obj 977 446 route 16 17 18 19 20 21 22 7;
#X obj 937 364 select 43 44 42 41 45;
#X obj 903 399 s one;
#X obj 947 398 s two;
#X floatatom 458 496 5 0 0 0 - - - 0;
#X floatatom 501 497 5 0 0 0 - - - 0;
#X floatatom 544 498 5 0 0 0 - - - 0;
#X floatatom 586 498 5 0 0 0 - - - 0;
#X floatatom 629 498 5 0 0 0 - - - 0;
#X floatatom 671 498 5 0 0 0 - - - 0;
#X floatatom 713 498 5 0 0 0 - - - 0;
#X obj 992 400 s three;
#X obj 1049 401 s four;
#X obj 1099 400 s five;
#X obj 439 162 r one;
#X obj 468 442 unpack f f f f f f f;
#X obj 450 217 r two;
#X obj 459 273 r three;
#X obj 469 328 r four;
#X obj 476 384 r five;
#X obj 1126 601 line;
#X obj 847 301 pow 2;
#X msg 440 193 20 20 40 40 60 80 100;
#X msg 451 248 50 50 100 100 150 180 200;
#X msg 460 304 40 40 80 80 114 140 160;
#X msg 470 359 30 30 45 45 54 60 82;
#X msg 477 411 27.5 27.5 55 55 110 187;
#X obj 908 798 *~;
#X obj 793 798 *~;
#X obj 793 771 *~ 0.5;
#X obj 665 638 catch~ L;
#X obj 930 639 catch~ R;
#X obj 791 639 catch~ C;
#X obj 658 603 throw~ L;
#X obj 789 602 throw~ L;
#X obj 727 602 throw~ R;
#X obj 858 600 throw~ R;
#X obj 925 601 throw~ C;
#X obj 992 602 throw~ C;
#X obj 1057 602 throw~ C;
#X obj 930 471 * -1;
#X obj 993 475 * -1;
#X obj 665 772 *~ 0.5;
#X obj 931 771 *~ 0.5;
#X obj 1125 573 pack f 200;
#X obj 658 578 WTTune;
#X obj 725 575 WTTune;
#X obj 789 575 WTTune;
#X obj 858 575 WTTune;
#X obj 925 574 WTTune;
#X obj 992 577 WTTune;
#X obj 1057 576 WTTune;
#X obj 793 746 cyclone/slide~;
#X obj 840 692 loadbang;
#X obj 793 666 clip~ -1 1;
#X msg 840 719 5;
#X msg 888 719 10;
#X obj 931 744 cyclone/slide~;
#X obj 978 690 loadbang;
#X obj 931 664 clip~ -1 1;
#X msg 978 717 5;
#X msg 1026 717 10;
#X connect 4 0 40 1;
#X connect 5 0 4 1;
#X connect 5 0 44 1;
#X connect 6 0 7 0;
#X connect 7 0 5 0;
#X connect 9 0 93 0;
#X connect 10 0 41 0;
#X connect 10 0 42 0;
#X connect 11 0 13 0;
#X connect 12 0 13 0;
#X connect 13 0 15 0;
#X connect 14 0 13 0;
#X connect 15 0 30 0;
#X connect 15 2 30 0;
#X connect 16 0 17 0;
#X connect 17 0 29 0;
#X connect 25 0 2 0;
#X connect 26 0 2 1;
#X connect 27 0 9 0;
#X connect 28 0 14 0;
#X connect 29 0 31 0;
#X connect 29 1 32 0;
#X connect 29 2 33 0;
#X connect 29 3 34 0;
#X connect 30 0 16 0;
#X connect 31 0 36 0;
#X connect 32 0 37 0;
#X connect 33 0 38 0;
#X connect 34 0 39 0;
#X connect 35 0 13 0;
#X connect 36 0 21 0;
#X connect 37 0 22 0;
#X connect 38 0 23 0;
#X connect 39 0 24 0;
#X connect 40 0 43 0;
#X connect 40 1 43 1;
#X connect 41 0 9 1;
#X connect 42 0 9 2;
#X connect 43 0 8 0;
#X connect 43 0 8 1;
#X connect 44 0 40 0;
#X connect 45 0 44 0;
#X connect 46 0 48 0;
#X connect 46 1 47 0;
#X connect 47 0 49 0;
#X connect 48 0 72 0;
#X connect 49 0 50 0;
#X connect 49 0 51 0;
#X connect 49 0 52 0;
#X connect 50 0 96 1;
#X connect 50 1 97 1;
#X connect 50 2 98 1;
#X connect 50 3 99 1;
#X connect 50 4 100 1;
#X connect 50 5 101 1;
#X connect 50 6 102 1;
#X connect 51 0 91 0;
#X connect 51 1 97 2;
#X connect 51 2 92 0;
#X connect 51 3 99 2;
#X connect 51 4 100 2;
#X connect 51 5 101 2;
#X connect 51 6 102 2;
#X connect 51 7 95 0;
#X connect 52 0 53 0;
#X connect 52 1 54 0;
#X connect 52 2 62 0;
#X connect 52 3 63 0;
#X connect 52 4 64 0;
#X connect 55 0 96 0;
#X connect 56 0 97 0;
#X connect 57 0 98 0;
#X connect 58 0 99 0;
#X connect 59 0 100 0;
#X connect 60 0 101 0;
#X connect 61 0 102 0;
#X connect 65 0 73 0;
#X connect 66 0 55 0;
#X connect 66 1 56 0;
#X connect 66 2 57 0;
#X connect 66 3 58 0;
#X connect 66 4 59 0;
#X connect 66 5 60 0;
#X connect 66 6 61 0;
#X connect 67 0 74 0;
#X connect 68 0 75 0;
#X connect 69 0 76 0;
#X connect 70 0 77 0;
#X connect 71 0 45 1;
#X connect 71 0 78 1;
#X connect 71 0 79 1;
#X connect 72 0 49 1;
#X connect 73 0 66 0;
#X connect 74 0 66 0;
#X connect 75 0 66 0;
#X connect 76 0 66 0;
#X connect 77 0 66 0;
#X connect 78 0 4 0;
#X connect 79 0 44 0;
#X connect 79 0 4 0;
#X connect 80 0 79 0;
#X connect 81 0 27 0;
#X connect 82 0 110 0;
#X connect 83 0 105 0;
#X connect 91 0 96 2;
#X connect 92 0 98 2;
#X connect 93 0 45 0;
#X connect 94 0 78 0;
#X connect 95 0 71 0;
#X connect 96 0 84 0;
#X connect 97 0 86 0;
#X connect 98 0 85 0;
#X connect 99 0 87 0;
#X connect 100 0 88 0;
#X connect 101 0 89 0;
#X connect 102 0 90 0;
#X connect 103 0 80 0;
#X connect 104 0 106 0;
#X connect 104 0 107 0;
#X connect 105 0 103 0;
#X connect 106 0 103 1;
#X connect 107 0 103 2;
#X connect 108 0 94 0;
#X connect 109 0 111 0;
#X connect 109 0 112 0;
#X connect 110 0 108 0;
#X connect 111 0 108 1;
#X connect 112 0 108 2;
